<?xml version="1.0" standalone="no"?>
<svg xmlns="http://www.w3.org/2000/svg" width="319.95908271908274" height="78.63908271908272" viewBox="0 0 319.95908271908274 78.63908271908272"><g fill="#51be95" color="#51be95" transform="translate(0 2.765) scale(1.4742986)"><svg width="53.34" height="49.59" x="0.0" y="0.0" viewBox="0 0 53.34 49.59"><path d="M53.26,14.78C52.48,6.21,46.42,0,38.83,0c-4.6,0-8.96,2.3-11.67,6.14c-0.21,0.3-0.48,0.35-0.63,0.35  c-0.14,0-0.42-0.05-0.63-0.35C23.23,2.24,19.08,0,14.51,0C6.93,0,0.87,6.21,0.09,14.78c-0.06,0.37-0.31,2.36,0.45,5.61  c1.11,4.69,3.66,8.95,7.39,12.32l18.58,16.87l18.9-16.86c0.96-0.87,1.83-1.79,2.63-2.77c0.01-0.01,0.02-0.03,0.04-0.05  c2.29-2.81,3.9-6.04,4.72-9.51C53.57,17.14,53.32,15.15,53.26,14.78z M26.52,46.9L9.27,31.24c-0.36-0.32-0.69-0.66-1.02-1h3.1  c0.39,0,0.75-0.23,0.91-0.59l4.03-8.87l5.13,12.83c0.14,0.36,0.48,0.6,0.87,0.63c0.02,0,0.04,0,0.06,0c0.36,0,0.7-0.2,0.87-0.51  l4.16-7.48l2.11,3.54c0.21,0.35,0.62,0.55,1.02,0.47c0.41-0.07,0.73-0.38,0.81-0.78l2.88-13.72l2.15,13.63  c0.08,0.49,0.5,0.84,0.99,0.84h7.75c-0.33,0.34-0.67,0.67-1.02,0.99L26.52,46.9z M50.85,19.94c-0.71,3.01-2.09,5.82-4.02,8.3H38.2  l-2.87-18.16c-0.08-0.48-0.48-0.83-0.96-0.84c-0.51-0.04-0.9,0.32-1,0.79l-3.47,16.53l-1.69-2.84c-0.18-0.31-0.48-0.48-0.87-0.49  c-0.36,0.01-0.69,0.2-0.86,0.51l-3.98,7.16l-5.22-13.05c-0.15-0.37-0.5-0.62-0.91-0.63c-0.38-0.03-0.77,0.22-0.93,0.59L10.7,28.24  h-4.2c-1.93-2.49-3.31-5.3-4.02-8.3c-0.73-3.08-0.43-4.83-0.43-4.84L2.08,15C2.75,7.47,7.98,2,14.51,2c3.9,0,7.45,1.92,9.74,5.27  c0.52,0.77,1.38,1.22,2.28,1.22c0.9,0,1.73-0.44,2.26-1.19C31.13,3.98,34.88,2,38.83,2c6.54,0,11.77,5.47,12.45,13.09  C51.28,15.11,51.58,16.85,50.85,19.94z"></path></svg></g><path fill="#0466b2" fill-rule="nonzero" d="M10.28 1.96L6.72 1.96L6.72 13.72L9.48 13.72Q12 13.72 12.94 13.06Q13.88 12.40 13.92 10.48L13.92 10.48Q14.88 10.20 15.84 10.20L15.84 10.20Q15.76 11.56 15.76 14.56L15.76 14.56Q15.76 17.84 15.84 19.20L15.84 19.20Q14.76 19.20 14.00 19L14.00 19Q13.84 16.92 12.90 16.18Q11.96 15.44 9.48 15.44L9.48 15.44L6.72 15.44L6.72 21.52Q6.72 23.24 7.08 24.14Q7.44 25.04 8.18 25.38Q8.92 25.72 10.28 25.80L10.28 25.80Q10.48 26.36 10.48 27.52L10.48 27.52Q8.64 27.40 5.44 27.40L5.44 27.40Q1.56 27.40 0 27.52L0 27.52Q0 26.36 0.20 25.80L0.20 25.80Q1.80 25.72 2.38 25.02Q2.96 24.32 2.96 22.32L2.96 22.32L2.96 5.44Q2.96 3.44 2.38 2.74Q1.80 2.04 0.20 1.96L0.20 1.96Q0 1.40 0 0.24L0 0.24Q2.64 0.36 6.68 0.36L6.68 0.36Q13.84 0.36 17.80 0.24L17.80 0.24Q18.20 4.64 18.64 6.56L18.64 6.56Q18.04 7.04 16.84 7.04L16.84 7.04Q16.64 4.80 15.22 3.38Q13.80 1.96 10.28 1.96L10.28 1.96ZM44.72 25.80Q44.96 26.60 44.96 27.52L44.96 27.52Q42.56 27.40 40.40 27.40L40.40 27.40Q38.28 27.40 35.88 27.52L35.88 27.52Q35.88 26.36 36.16 25.80L36.16 25.80Q37.28 25.68 37.74 25.44Q38.20 25.20 38.20 24.64L38.20 24.64Q38.20 24.16 37.60 22.68L37.60 22.68L35.84 18.60Q29.48 18.60 25.28 18.76L25.28 18.76L24.20 21.52Q23.56 23.20 23.56 24.16L23.56 24.16Q23.56 24.96 24.06 25.34Q24.56 25.72 25.64 25.80L25.64 25.80Q25.92 26.48 25.92 27.52L25.92 27.52Q24.56 27.40 22.12 27.40L22.12 27.40Q21.08 27.40 18.80 27.52L18.80 27.52Q18.80 26.52 19.08 25.84L19.08 25.84Q20.12 25.64 20.72 24.80Q21.32 23.96 22.28 21.52L22.28 21.52L30.56 0.28Q31.24 0.12 32.12 0.12L32.12 0.12L41.64 21.96Q42.64 24.20 43.22 24.92Q43.80 25.64 44.72 25.80L44.72 25.80ZM26.00 16.80L35.08 16.80L32.04 9.68Q30.84 6.92 30.28 5.32L30.28 5.32Q29.84 6.68 28.76 9.64L28.76 9.64L26.00 16.80ZM66.88 21.80Q67.80 23.36 68.44 24.12Q69.08 24.88 69.94 25.24Q70.80 25.60 72.28 25.68L72.28 25.68Q72.28 26.84 72.12 27.40L72.12 27.40Q68.04 27.40 65.84 27.76L65.84 27.76Q64.32 25.32 63.16 23.04L63.16 23.04L62.68 22.16Q61.44 19.92 60.42 18.42Q59.40 16.92 57.72 15.12L57.72 15.12L56.48 15.16Q55.88 15.16 54.92 15.08L54.92 15.08L54.92 22.32Q54.92 24.32 55.46 25.02Q56.00 25.72 57.56 25.80L57.56 25.80Q57.76 26.40 57.76 27.52L57.76 27.52Q56.04 27.40 53.00 27.40L53.00 27.40Q50.00 27.40 48.20 27.52L48.20 27.52Q48.20 26.44 48.40 25.80L48.40 25.80Q50.04 25.72 50.60 25.02Q51.16 24.32 51.16 22.32L51.16 22.32L51.16 5.44Q51.16 3.44 50.58 2.70Q50.00 1.96 48.40 1.96L48.40 1.96Q48.20 1.32 48.20 0.28L48.20 0.28Q49.80 0.36 53.00 0.36L53.00 0.36Q55.20 0.36 56.32 0.32L56.32 0.32L59.68 0.28Q64 0.28 66.20 2.14Q68.40 4 68.40 7L68.40 7Q68.40 9.64 66.62 11.56Q64.84 13.48 61.68 14.28L61.68 14.28Q63.08 15.76 64.04 17.18Q65 18.60 66.88 21.80L66.88 21.80ZM54.92 13.24Q55.88 13.36 56.68 13.36L56.68 13.36Q60.16 13.36 62.32 11.86Q64.48 10.36 64.48 7.40L64.48 7.40Q64.48 4.88 62.90 3.46Q61.32 2.04 57.88 2.04L57.88 2.04Q56.44 2.04 54.92 2.36L54.92 2.36L54.92 13.24ZM108.96 25.76Q109.16 26.44 109.16 27.52L109.16 27.52Q107.32 27.40 104.36 27.40L104.36 27.40Q101.52 27.40 99.48 27.52L99.48 27.52Q99.48 26.56 99.72 25.80L99.72 25.80Q101.24 25.64 101.76 25.12Q102.28 24.60 102.28 23.20L102.28 23.20Q102.28 22.40 102.16 21.20L102.16 21.20L100.72 7.48L92.44 27.48Q91.76 27.76 90.80 27.76L90.80 27.76L81.48 7.52L80.20 20.36Q80.08 21.56 80.08 22.44L80.08 22.44Q80.08 24.28 80.70 24.98Q81.32 25.68 82.80 25.80L82.80 25.80Q83 26.48 83 27.52L83 27.52Q81.08 27.40 78.72 27.40L78.72 27.40Q76.36 27.40 74.72 27.52L74.72 27.52Q74.72 26.48 74.92 25.80L74.92 25.80Q76.04 25.68 76.64 25.24Q77.24 24.80 77.58 23.62Q77.92 22.44 78.16 20L78.16 20L79.44 5.76Q79.48 5.40 79.48 4.80L79.48 4.80Q79.48 3.24 78.84 2.60Q78.20 1.96 76.76 1.96L76.76 1.96Q76.56 1.32 76.56 0.24L76.56 0.24Q77.76 0.36 79.60 0.36L79.60 0.36Q81.08 0.36 82.64 0.24L82.64 0.24L92.64 22.36L101.36 0.24Q102.72 0.36 104.48 0.36L104.48 0.36Q105.92 0.36 107.52 0.24L107.52 0.24Q107.52 1.20 107.32 1.96L107.32 1.96Q105.96 1.96 105.26 2.64Q104.56 3.32 104.56 5L104.56 5Q104.56 5.64 104.60 6L104.60 6L106.04 20.68Q106.24 22.68 106.56 23.74Q106.88 24.80 107.44 25.24Q108 25.68 108.96 25.76L108.96 25.76ZM137.48 25.80Q137.72 26.60 137.72 27.52L137.72 27.52Q135.32 27.40 133.16 27.40L133.16 27.40Q131.04 27.40 128.64 27.52L128.64 27.52Q128.64 26.36 128.92 25.80L128.92 25.80Q130.04 25.68 130.50 25.44Q130.96 25.20 130.96 24.64L130.96 24.64Q130.96 24.16 130.36 22.68L130.36 22.68L128.60 18.60Q122.24 18.60 118.04 18.76L118.04 18.76L116.96 21.52Q116.32 23.20 116.32 24.16L116.32 24.16Q116.32 24.96 116.82 25.34Q117.32 25.72 118.40 25.80L118.40 25.80Q118.68 26.48 118.68 27.52L118.68 27.52Q117.32 27.40 114.88 27.40L114.88 27.40Q113.84 27.40 111.56 27.52L111.56 27.52Q111.56 26.52 111.84 25.84L111.84 25.84Q112.88 25.64 113.48 24.80Q114.08 23.96 115.04 21.52L115.04 21.52L123.32 0.28Q124 0.12 124.88 0.12L124.88 0.12L134.40 21.96Q135.40 24.20 135.98 24.92Q136.56 25.64 137.48 25.80L137.48 25.80ZM118.76 16.80L127.84 16.80L124.80 9.68Q123.60 6.92 123.04 5.32L123.04 5.32Q122.60 6.68 121.52 9.64L121.52 9.64L118.76 16.80ZM152.04 27.76Q148.36 27.76 145.46 25.98Q142.56 24.20 140.94 21Q139.32 17.80 139.32 13.68L139.32 13.68Q139.32 9.28 141.18 6.20Q143.04 3.12 146.10 1.56Q149.16 0 152.68 0L152.68 0Q155.12 0 157.20 0.50Q159.28 1 161.56 2.08L161.56 2.08Q161.12 4.16 161.12 8.28L161.12 8.28Q160.24 8.64 159 8.64L159 8.64Q158.84 4.64 157.36 3.14Q155.88 1.64 153 1.64L153 1.64Q149.76 1.64 147.64 3.16Q145.52 4.68 144.52 7.16Q143.52 9.64 143.52 12.60L143.52 12.60Q143.52 16.20 144.74 19.10Q145.96 22 148.28 23.66Q150.60 25.32 153.72 25.32L153.72 25.32Q155.60 25.32 157.60 24.68Q159.60 24.04 161.32 22.96L161.32 22.96Q161.56 23.16 161.78 23.54Q162 23.92 162.04 24.20L162.04 24.20Q159.60 26.08 157.30 26.92Q155 27.76 152.04 27.76L152.04 27.76ZM169.24 5.44Q169.24 3.44 168.66 2.74Q168.08 2.04 166.48 1.96L166.48 1.96Q166.28 1.40 166.28 0.24L166.28 0.24Q168.48 0.36 171.12 0.36L171.12 0.36Q173.56 0.36 175.96 0.24L175.96 0.24Q175.96 1.40 175.76 1.96L175.76 1.96Q174.16 2.04 173.58 2.74Q173 3.44 173 5.44L173 5.44L173 22.32Q173 24.32 173.58 25.02Q174.16 25.72 175.76 25.80L175.76 25.80Q175.96 26.36 175.96 27.52L175.96 27.52Q173.56 27.40 171.12 27.40L171.12 27.40Q168.32 27.40 166.28 27.52L166.28 27.52Q166.28 26.36 166.48 25.80L166.48 25.80Q168.08 25.72 168.66 25.02Q169.24 24.32 169.24 22.32L169.24 22.32L169.24 5.44ZM205.12 25.80Q205.36 26.60 205.36 27.52L205.36 27.52Q202.96 27.40 200.80 27.40L200.80 27.40Q198.68 27.40 196.28 27.52L196.28 27.52Q196.28 26.36 196.56 25.80L196.56 25.80Q197.68 25.68 198.14 25.44Q198.60 25.20 198.60 24.64L198.60 24.64Q198.60 24.16 198 22.68L198 22.68L196.24 18.60Q189.88 18.60 185.68 18.76L185.68 18.76L184.60 21.52Q183.96 23.20 183.96 24.16L183.96 24.16Q183.96 24.96 184.46 25.34Q184.96 25.72 186.04 25.80L186.04 25.80Q186.32 26.48 186.32 27.52L186.32 27.52Q184.96 27.40 182.52 27.40L182.52 27.40Q181.48 27.40 179.20 27.52L179.20 27.52Q179.20 26.52 179.48 25.84L179.48 25.84Q180.52 25.64 181.12 24.80Q181.72 23.96 182.68 21.52L182.68 21.52L190.96 0.28Q191.64 0.12 192.52 0.12L192.52 0.12L202.04 21.96Q203.04 24.20 203.62 24.92Q204.20 25.64 205.12 25.80L205.12 25.80ZM186.40 16.80L195.48 16.80L192.44 9.68Q191.24 6.92 190.68 5.32L190.68 5.32Q190.24 6.68 189.16 9.64L189.16 9.64L186.40 16.80ZM217.20 27.76Q214.88 27.76 213.04 27.14Q211.20 26.52 209.08 25.20L209.08 25.20Q209.44 22.96 209.44 19.52L209.44 19.52Q210.36 19.28 211.60 19.28L211.60 19.28Q211.76 22.48 213.22 24.16Q214.68 25.84 217.76 25.84L217.76 25.84Q220.36 25.84 221.62 24.70Q222.88 23.56 222.88 21.68L222.88 21.68Q222.88 20.12 222.08 19.04Q221.28 17.96 220.12 17.26Q218.96 16.56 216.88 15.60L216.88 15.60Q214.48 14.44 213.04 13.52Q211.60 12.60 210.58 11.06Q209.56 9.52 209.56 7.20L209.56 7.20Q209.56 3.84 211.72 1.92Q213.88 0 217.60 0L217.60 0Q219.56 0 221.36 0.50Q223.16 1 224.28 1.76L224.28 1.76Q224.28 5.32 224.52 7.04L224.52 7.04Q223.64 7.40 222.28 7.40L222.28 7.40Q221.72 4.12 220.60 2.94Q219.48 1.76 217.56 1.76L217.56 1.76Q215.44 1.76 214.24 2.80Q213.04 3.84 213.04 5.72L213.04 5.72Q213.04 7.28 213.86 8.40Q214.68 9.52 215.86 10.24Q217.04 10.96 219.12 12.00L219.12 12.00Q221.48 13.12 222.90 14.04Q224.32 14.96 225.32 16.44Q226.32 17.92 226.32 20.08L226.32 20.08Q226.32 22.16 225.34 23.90Q224.36 25.64 222.30 26.70Q220.24 27.76 217.20 27.76L217.20 27.76Z" transform="translate(93.64 0) scale(1)"></path><path fill="#0466b2" fill-rule="nonzero" d="M8.12 27.76Q5.80 27.76 3.96 27.14Q2.12 26.52 0 25.20L0 25.20Q0.36 22.96 0.36 19.52L0.36 19.52Q1.28 19.28 2.52 19.28L2.52 19.28Q2.68 22.48 4.14 24.16Q5.60 25.84 8.68 25.84L8.68 25.84Q11.28 25.84 12.54 24.70Q13.80 23.56 13.80 21.68L13.80 21.68Q13.80 20.12 13 19.04Q12.20 17.96 11.04 17.26Q9.88 16.56 7.80 15.60L7.80 15.60Q5.40 14.44 3.96 13.52Q2.52 12.60 1.50 11.06Q0.48 9.52 0.48 7.20L0.48 7.20Q0.48 3.84 2.64 1.92Q4.80 0 8.52 0L8.52 0Q10.48 0 12.28 0.50Q14.08 1 15.20 1.76L15.20 1.76Q15.20 5.32 15.44 7.04L15.44 7.04Q14.56 7.40 13.20 7.40L13.20 7.40Q12.64 4.12 11.52 2.94Q10.40 1.76 8.48 1.76L8.48 1.76Q6.36 1.76 5.16 2.80Q3.96 3.84 3.96 5.72L3.96 5.72Q3.96 7.28 4.78 8.40Q5.60 9.52 6.78 10.24Q7.96 10.96 10.04 12.00L10.04 12.00Q12.40 13.12 13.82 14.04Q15.24 14.96 16.24 16.44Q17.24 17.92 17.24 20.08L17.24 20.08Q17.24 22.16 16.26 23.90Q15.28 25.64 13.22 26.70Q11.16 27.76 8.12 27.76L8.12 27.76ZM46.28 25.80Q46.52 26.60 46.52 27.52L46.52 27.52Q44.12 27.40 41.96 27.40L41.96 27.40Q39.84 27.40 37.44 27.52L37.44 27.52Q37.44 26.36 37.72 25.80L37.72 25.80Q38.84 25.68 39.30 25.44Q39.76 25.20 39.76 24.64L39.76 24.64Q39.76 24.16 39.16 22.68L39.16 22.68L37.40 18.60Q31.04 18.60 26.84 18.76L26.84 18.76L25.76 21.52Q25.12 23.20 25.12 24.16L25.12 24.16Q25.12 24.96 25.62 25.34Q26.12 25.72 27.20 25.80L27.20 25.80Q27.48 26.48 27.48 27.52L27.48 27.52Q26.12 27.40 23.68 27.40L23.68 27.40Q22.64 27.40 20.36 27.52L20.36 27.52Q20.36 26.52 20.64 25.84L20.64 25.84Q21.68 25.64 22.28 24.80Q22.88 23.96 23.84 21.52L23.84 21.52L32.12 0.28Q32.80 0.12 33.68 0.12L33.68 0.12L43.20 21.96Q44.20 24.20 44.78 24.92Q45.36 25.64 46.28 25.80L46.28 25.80ZM27.56 16.80L36.64 16.80L33.60 9.68Q32.40 6.92 31.84 5.32L31.84 5.32Q31.40 6.68 30.32 9.64L30.32 9.64L27.56 16.80ZM71.76 0.36Q73.92 0.36 75.56 0.24L75.56 0.24Q75.56 1.24 75.36 1.96L75.36 1.96Q74.44 1.96 73.94 2.48Q73.44 3 73.22 4.22Q73 5.44 73 7.64L73 7.64L73 27.40Q72.36 27.64 71.28 27.64L71.28 27.64L54.76 6.08L54.76 19.92Q54.76 22.24 55 23.48Q55.24 24.72 55.84 25.26Q56.44 25.80 57.52 25.80L57.52 25.80Q57.72 26.40 57.72 27.52L57.72 27.52Q55.92 27.40 53.76 27.40L53.76 27.40Q51.28 27.40 49.76 27.52L49.76 27.52Q49.76 26.40 49.96 25.80L49.96 25.80Q51.04 25.80 51.64 25.26Q52.24 24.72 52.48 23.48Q52.72 22.24 52.72 19.92L52.72 19.92L52.72 3.40L52.56 3.20Q52 2.52 51.50 2.28Q51 2.04 49.96 1.96L49.96 1.96Q49.76 1.24 49.76 0.24L49.76 0.24Q50.96 0.36 52.72 0.36L52.72 0.36Q54.32 0.36 55.40 0.24L55.40 0.24L70.96 20.88L70.96 7.64Q70.96 5.40 70.72 4.20Q70.48 3 69.88 2.48Q69.28 1.96 68.20 1.96L68.20 1.96Q68 0.80 68 0.24L68 0.24Q69.72 0.36 71.76 0.36L71.76 0.36ZM103.32 25.80Q103.56 26.60 103.56 27.52L103.56 27.52Q101.16 27.40 99 27.40L99 27.40Q96.88 27.40 94.48 27.52L94.48 27.52Q94.48 26.36 94.76 25.80L94.76 25.80Q95.88 25.68 96.34 25.44Q96.80 25.20 96.80 24.64L96.80 24.64Q96.80 24.16 96.20 22.68L96.20 22.68L94.44 18.60Q88.08 18.60 83.88 18.76L83.88 18.76L82.80 21.52Q82.16 23.20 82.16 24.16L82.16 24.16Q82.16 24.96 82.66 25.34Q83.16 25.72 84.24 25.80L84.24 25.80Q84.52 26.48 84.52 27.52L84.52 27.52Q83.16 27.40 80.72 27.40L80.72 27.40Q79.68 27.40 77.40 27.52L77.40 27.52Q77.40 26.52 77.68 25.84L77.68 25.84Q78.72 25.64 79.32 24.80Q79.92 23.96 80.88 21.52L80.88 21.52L89.16 0.28Q89.84 0.12 90.72 0.12L90.72 0.12L100.24 21.96Q101.24 24.20 101.82 24.92Q102.40 25.64 103.32 25.80L103.32 25.80ZM84.60 16.80L93.68 16.80L90.64 9.68Q89.44 6.92 88.88 5.32L88.88 5.32Q88.44 6.68 87.36 9.64L87.36 9.64L84.60 16.80ZM123.88 0.24L123.84 1.68Q123.84 3.28 124.12 6.64L124.12 6.64Q123.28 7.04 122.12 7L122.12 7Q122.04 4.60 120.96 3.36Q119.88 2.12 117.60 2.12L117.60 2.12L115.48 2.12L115.48 22.32Q115.48 23.72 115.72 24.42Q115.96 25.12 116.62 25.42Q117.28 25.72 118.60 25.80L118.60 25.80Q118.80 26.36 118.80 27.52L118.80 27.52Q116.24 27.40 113.56 27.40L113.56 27.40Q110.56 27.40 108.32 27.52L108.32 27.52Q108.32 26.36 108.52 25.80L108.52 25.80Q109.84 25.72 110.52 25.42Q111.20 25.12 111.46 24.40Q111.72 23.68 111.72 22.32L111.72 22.32L111.72 2.12L109.68 2.12Q107.84 2.12 106.84 2.70Q105.84 3.28 105.42 4.26Q105 5.24 104.68 7L104.68 7Q103.36 7 102.76 6.64L102.76 6.64Q103.40 3.04 103.40 0.24L103.40 0.24Q105.64 0.36 113.60 0.36L113.60 0.36Q121.68 0.36 123.88 0.24L123.88 0.24ZM144.76 20.56Q145.92 20.92 146.52 21.52L146.52 21.52Q145.76 23.88 145.28 27.48L145.28 27.48Q142.16 27.40 136.72 27.40L136.72 27.40Q129.36 27.40 126.36 27.52L126.36 27.52Q126.36 26.36 126.56 25.80L126.56 25.80Q127.68 25.72 128.26 25.40Q128.84 25.08 129.08 24.28Q129.32 23.48 129.32 21.88L129.32 21.88L129.32 5.44Q129.32 3.44 128.74 2.74Q128.16 2.04 126.56 1.96L126.56 1.96Q126.36 1.40 126.36 0.24L126.36 0.24Q128.72 0.36 133.08 0.36L133.08 0.36Q140.36 0.36 144.32 0.24L144.32 0.24Q144.72 4.64 145.16 6.56L145.16 6.56Q144.56 7.04 143.36 7.04L143.36 7.04Q143.16 4.80 141.74 3.38Q140.32 1.96 136.80 1.96L136.80 1.96L133.08 1.96L133.08 12.92L135.60 12.92Q138.12 12.92 139.06 12.26Q140 11.60 140.04 9.68L140.04 9.68Q141 9.40 141.96 9.40L141.96 9.40Q141.88 10.76 141.88 13.76L141.88 13.76Q141.88 17.04 141.96 18.40L141.96 18.40Q140.88 18.40 140.12 18.20L140.12 18.20Q139.96 16.12 139.02 15.38Q138.08 14.64 135.60 14.64L135.60 14.64L133.08 14.64L133.08 21.88Q133.08 23.40 133.36 24.18Q133.64 24.96 134.42 25.28Q135.20 25.60 136.72 25.60L136.72 25.60L136.96 25.60Q139.72 25.60 141.20 25.04Q142.68 24.48 143.38 23.48Q144.08 22.48 144.76 20.56L144.76 20.56Z" transform="translate(93.64 35.761) scale(1.545)"></path></svg>